# xmcd CD database file
#
# Track frame offsets:
#	150
#	13095
#	24586
#	34723
#	45930
#	56985
#	70762
#	81409
#	91715
#	103397
#	115963
#	126974
#	136860
#	148723
#	159429
#	168750
#	181438
#	192700
#
# Disc length: 2722 seconds
#
# Revision: 2
# Processed by: cddbd v1.5.1PL0 Copyright (c) Steve Scherf et al.
# Submitted via: CDex 1.51
#
DISCID=fa0aa012
DTITLE=Patsy Cline - Walking After Midnight
DYEAR=1900
DGENRE=Country
TTITLE0=Life's Railway to Heaven
TTITLE1=Walking After Midnight
TTITLE2=Three Cigarettes in the Ashtray
TTITLE3=Hungry for Love
TTITLE4=I Can't Forget
TTITLE5=A Church, a Courtroom and Then Goodbye
TTITLE6=Honky Tonk Merry Go Round
TTITLE7=Too Many Secrets
TTITLE8=A Poor Man's Roses (Or a Rich Man's Gold)
TTITLE9=Fingerprints
TTITLE10=Stop the World and Let Me Off
TTITLE11=Turn the Cards Slowly
TTITLE12=If I Could Only Stay Asleep
TTITLE13=I Can See an Angel Walkin'
TTITLE14=Come On In
TTITLE15=Just a Closer Walk With Thee
TTITLE16=That Wonderful Someone
TTITLE17=I've Loved and Lost Again
EXTD=Cheap Dutch compilation
EXTT0=
EXTT1=
EXTT2=
EXTT3=
EXTT4=
EXTT5=
EXTT6=
EXTT7=
EXTT8=
EXTT9=
EXTT10=
EXTT11=
EXTT12=
EXTT13=
EXTT14=
EXTT15=
EXTT16=
EXTT17=
PLAYORDER=
